<svg viewBox="0 0 472 77" fill="none" xmlns="http://www.w3.org/2000/svg">
<path d="M60.9644 46.2903C60.9644 58.5292 55.9372 62.9816 42.1828 62.9816H1.43184C1.59907 59.2086 1.93352 55.4355 2.18436 51.6625H41.4303C47.555 51.6625 49.3109 50.2411 49.3109 45.287C49.3109 40.427 47.6386 38.9115 41.6812 38.9115H18.2799C4.44191 38.9115 -4.57764e-05 33.9678 -4.57764e-05 23.4012V21.4781C-4.57764e-05 9.99174 4.60915 5.29895 18.6144 5.29895H59.0309C58.6128 9.15561 58.1112 12.9287 57.6095 16.7853H18.6144C13.075 16.7853 11.4863 18.5412 11.4863 23.0772C11.4863 27.6028 13.075 29.4527 18.6144 29.4527H41.6707C56.0104 29.4527 60.954 34.1455 60.954 44.2941V46.2903H60.9644Z" fill="black"/>
<path d="M69.7752 13.7542V1.75574H81.0943V13.7438H69.7752V13.7542ZM69.7752 62.9711V17.6945H81.0107V62.9711H69.7752Z" fill="black"/>
<path d="M129.151 50.6488C126.214 56.3554 123.026 57.3587 115.731 57.3587H107.934C94.8487 57.3587 90.574 52.0806 90.574 40.1658V35.8074C90.574 23.5685 94.8487 17.6947 107.934 17.6947H117.665C121.271 17.6947 127.479 18.7817 129.569 24.3211V17.6947H140.387V55.5088C140.387 66.4935 136.864 76.0567 118.919 76.0567C114.895 76.0567 110.788 75.4714 107.014 74.2068L108.352 65.3229C111.958 66.4099 114.811 66.8279 118.501 66.8279C126.799 66.8279 129.151 62.4696 129.151 55.5088V50.6488ZM129.151 31.7835C128.231 28.6794 126.465 27.5088 122.859 27.5088H108.687C103.398 27.5088 101.726 29.3587 101.726 36.4763V39.4969C101.726 47.2938 103.576 48.4644 108.603 48.4644H122.107C126.298 48.4644 128.231 47.6282 129.151 44.1896V31.7835Z" fill="black"/>
<path d="M188.015 62.9713V34.3755C188.015 29.7664 186.51 27.4147 181.806 27.4147H167.216C163.945 27.4147 162.44 28.7525 161.603 31.7731V62.9713H150.451V17.6947H161.185V24.2374C163.621 19.461 166.631 17.6947 171.919 17.6947H181.817C194.986 17.6947 199.261 23.5685 199.261 35.8074V62.9817H188.015V62.9713Z" fill="black"/>
<path d="M222.652 62.9713C212.001 62.9713 208.061 59.5327 208.061 51.903V46.9593C208.061 39.3296 212.336 36.2255 222.484 36.2255H238.078C242.52 36.2255 244.537 37.0616 246.21 37.9814V32.7033C246.21 28.4285 243.858 27.5088 237.744 27.5088H211.583L212.67 17.6947H239.165C253.923 17.6947 257.194 24.1538 257.194 31.9508V62.9817C254.351 62.9817 251.164 61.5812 249.92 57.4528C249.774 56.9616 249.648 56.4285 249.565 55.8537C248.227 59.9612 244.454 62.9817 237.827 62.9817H222.652V62.9713ZM246.22 44.4405C244.286 43.688 242.112 43.1863 238.005 43.1863H224.334C220.812 43.1863 219.307 44.3569 219.307 48.2135C219.307 51.9866 220.812 53.2408 224.251 53.2408H237.921C241.945 53.2408 245.551 52.1538 246.22 48.3808V44.4405Z" fill="black"/>
<path d="M267.186 62.9712V3.77305L278.338 0V62.9712H267.186Z" fill="black"/>
<path d="M352.179 15.803C351.186 11.3506 349.137 8.58092 345.678 7.01317C342.992 5.79033 339.459 5.2782 334.902 5.2782H307.488C293.9 5.2782 289.542 9.55292 289.542 23.9762V44.2733C289.542 51.5581 290.681 56.2614 293.566 59.1356C296.012 61.5604 299.712 62.6787 305.063 62.9191C305.836 62.9504 306.641 62.9713 307.488 62.9713H334.902C348.322 62.9713 352.931 58.613 352.931 44.2733V23.9867C352.931 20.7675 352.68 18.0815 352.179 15.803ZM300.778 44.2733V23.9867C300.778 18.3637 302.199 16.6914 307.571 16.6914H334.913C335.299 16.6914 335.655 16.7019 335.989 16.7228L329.415 23.2969L318.577 34.1352L302.418 50.2726C301.196 49.1856 300.778 47.3043 300.778 44.2733ZM341.612 44.2733C341.612 49.8963 340.191 51.5686 334.902 51.5686H316.413L333.857 34.1248L341.612 26.3696V44.2733Z" fill="black"/>
<path d="M400.486 62.9713V34.3755C400.486 29.7664 398.981 27.4147 394.278 27.4147H379.687C376.416 27.4147 374.911 28.7525 374.075 31.7731V62.9713H362.923V17.6947H373.657V24.2374C376.092 19.461 379.102 17.6947 384.391 17.6947H394.278C407.447 17.6947 411.722 23.5685 411.722 35.8074V62.9817H400.486V62.9713Z" fill="black"/>
<path d="M438.98 62.9713C428.079 62.9713 421.62 58.3621 421.62 47.0429V33.623C421.62 22.3039 428.079 17.6947 438.98 17.6947H453.988C464.973 17.6947 471.432 22.3039 471.432 33.623V44.2733H432.772V47.0429C432.772 51.6521 435.123 53.2512 438.98 53.2512H470.512L469.091 62.9817H438.98V62.9713ZM460.186 34.2083C460.186 29.3483 458.43 27.4147 453.978 27.4147H438.969C434.527 27.4147 432.761 29.3378 432.761 33.623V37.2288H460.186V34.2083Z" fill="black"/>
</svg>
