<?xml version="1.0" encoding="utf-8"?>
<svg viewBox="3.34 2.4233 167.84 69.32" xmlns="http://www.w3.org/2000/svg">
  <g transform="matrix(1, 0, 0, 1, -31.249987602233887, -62.916664123535156)">
    <polygon points="173.2,65.36 34.59,65.36 55.24,86.01 65.57,96.33 75.89,106.66 86.22,116.98 103.9,134.66 111.2,127.36 &#10;&#9;&#9;&#9;100.82,116.98 121.5,116.98 131.84,106.66 90.49,106.66 80.17,96.33 142.18,96.33 152.52,86.01 69.84,86.01 59.52,75.68 &#10;&#9;&#9;&#9;162.86,75.68 &#9;&#9;"/>
    <polygon points="202.43,65.34 187.81,65.35 118.51,134.66 133.11,134.66 &#9;&#9;"/>
  </g>
</svg>